<svg width="18" height="20" viewBox="0 0 18 20" fill="none" xmlns="http://www.w3.org/2000/svg">
<path d="M3.85752 8.33346C3.85719 8.13875 3.91515 7.95005 4.02133 7.80012C4.08112 7.71574 4.15455 7.64599 4.23741 7.59486C4.32027 7.54374 4.41094 7.51224 4.50423 7.50218C4.59751 7.49211 4.69157 7.50368 4.78103 7.53622C4.87048 7.56876 4.95358 7.62162 5.02554 7.69179L8.84299 11.4251L12.6675 7.82512C12.7404 7.7559 12.8242 7.70421 12.9142 7.67302C13.0042 7.64182 13.0985 7.63175 13.1919 7.64336C13.2852 7.65498 13.3756 7.68806 13.458 7.7407C13.5403 7.79335 13.613 7.86452 13.6718 7.95012C13.7366 8.03635 13.7855 8.13732 13.8154 8.2467C13.8453 8.35609 13.8556 8.47153 13.8455 8.58577C13.8355 8.70001 13.8054 8.8106 13.7571 8.91058C13.7088 9.01057 13.6434 9.0978 13.5649 9.16679L9.29168 13.1918C9.16424 13.3144 9.00439 13.3814 8.83942 13.3814C8.67446 13.3814 8.51461 13.3144 8.38717 13.1918L4.11392 9.02512C4.02773 8.94153 3.95959 8.83533 3.91505 8.71516C3.8705 8.59498 3.85079 8.46421 3.85752 8.33346Z" fill="#140342"/>
</svg>
