<svg width="20" height="20" viewBox="0 0 20 20" fill="none" xmlns="http://www.w3.org/2000/svg">
<path d="M8.33341 15.8334C8.1387 15.8337 7.95 15.7659 7.80008 15.6417C7.7157 15.5717 7.64594 15.4858 7.59482 15.3889C7.54369 15.2919 7.51219 15.1858 7.50213 15.0767C7.49207 14.9675 7.50364 14.8575 7.53617 14.7528C7.56871 14.6481 7.62158 14.5509 7.69174 14.4667L11.4251 10L7.82508 5.52503C7.75586 5.43979 7.70416 5.34171 7.67297 5.23643C7.64178 5.13115 7.6317 5.02074 7.64332 4.91155C7.65493 4.80236 7.68801 4.69654 7.74066 4.60017C7.7933 4.50381 7.86447 4.4188 7.95008 4.35003C8.0363 4.27417 8.13727 4.21695 8.24666 4.18195C8.35604 4.14696 8.47148 4.13496 8.58572 4.1467C8.69997 4.15844 8.81055 4.19366 8.91054 4.25016C9.01052 4.30666 9.09775 4.38322 9.16674 4.47503L13.1917 9.47503C13.3143 9.62414 13.3813 9.81118 13.3813 10.0042C13.3813 10.1972 13.3143 10.3843 13.1917 10.5334L9.02508 15.5334C8.94148 15.6342 8.83529 15.7139 8.71511 15.7661C8.59494 15.8182 8.46417 15.8412 8.33341 15.8334Z" fill="#140342"/>
</svg>
