<svg width="20" height="20" viewBox="0 0 20 20" fill="none" xmlns="http://www.w3.org/2000/svg">
<path d="M8.33346 15.8334C8.13875 15.8337 7.95005 15.7659 7.80012 15.6417C7.71574 15.5717 7.64599 15.4858 7.59486 15.3889C7.54374 15.2919 7.51224 15.1858 7.50218 15.0767C7.49211 14.9675 7.50368 14.8575 7.53622 14.7528C7.56876 14.6481 7.62162 14.5509 7.69179 14.4667L11.4251 10L7.82512 5.52503C7.7559 5.43979 7.70421 5.34171 7.67302 5.23643C7.64182 5.13115 7.63175 5.02074 7.64336 4.91155C7.65498 4.80236 7.68806 4.69654 7.7407 4.60017C7.79335 4.50381 7.86452 4.4188 7.95012 4.35003C8.03635 4.27417 8.13732 4.21695 8.2467 4.18195C8.35609 4.14696 8.47153 4.13496 8.58577 4.1467C8.70001 4.15844 8.8106 4.19366 8.91058 4.25016C9.01057 4.30666 9.0978 4.38322 9.16679 4.47503L13.1918 9.47503C13.3144 9.62414 13.3814 9.81118 13.3814 10.0042C13.3814 10.1972 13.3144 10.3843 13.1918 10.5334L9.02512 15.5334C8.94153 15.6342 8.83533 15.7139 8.71516 15.7661C8.59498 15.8182 8.46421 15.8412 8.33346 15.8334Z" fill="#140342"/>
</svg>
