<svg width="26" height="20" viewBox="0 0 26 20" fill="none" xmlns="http://www.w3.org/2000/svg">
<path d="M5.79064 8.33346C5.79017 8.13875 5.87533 7.95005 6.03134 7.80012C6.11919 7.71574 6.22709 7.64599 6.34885 7.59486C6.47061 7.54374 6.60384 7.51224 6.7409 7.50218C6.87797 7.49211 7.01619 7.50368 7.14763 7.53622C7.27908 7.56876 7.40117 7.62162 7.50692 7.69179L13.1162 11.4251L18.736 7.82512C18.843 7.7559 18.9662 7.70421 19.0984 7.67302C19.2306 7.64182 19.3693 7.63175 19.5064 7.64336C19.6435 7.65498 19.7764 7.68806 19.8974 7.7407C20.0185 7.79335 20.1252 7.86452 20.2116 7.95012C20.3068 8.03635 20.3787 8.13732 20.4226 8.2467C20.4666 8.35609 20.4817 8.47153 20.4669 8.58577C20.4522 8.70001 20.4079 8.8106 20.337 8.91058C20.266 9.01057 20.1699 9.0978 20.0546 9.16679L13.7755 13.1918C13.5883 13.3144 13.3534 13.3814 13.111 13.3814C12.8686 13.3814 12.6337 13.3144 12.4465 13.1918L6.16739 9.02512C6.04074 8.94153 5.94063 8.83533 5.87517 8.71516C5.80971 8.59498 5.78075 8.46421 5.79064 8.33346Z" fill="#140342"/>
</svg>
