<svg width="20" height="20" viewBox="0 0 20 20" fill="none" xmlns="http://www.w3.org/2000/svg">
<path d="M8.3334 15.8334C8.13869 15.8337 7.95 15.7659 7.80007 15.6417C7.71569 15.5717 7.64594 15.4858 7.59481 15.3889C7.54368 15.2919 7.51219 15.1858 7.50212 15.0767C7.49206 14.9675 7.50363 14.8575 7.53617 14.7528C7.5687 14.6481 7.62157 14.5509 7.69174 14.4667L11.4251 10L7.82507 5.52503C7.75585 5.43979 7.70416 5.34171 7.67296 5.23643C7.64177 5.13115 7.63169 5.02074 7.64331 4.91155C7.65492 4.80236 7.688 4.69654 7.74065 4.60017C7.79329 4.50381 7.86446 4.4188 7.95007 4.35003C8.03629 4.27417 8.13726 4.21695 8.24665 4.18195C8.35603 4.14696 8.47147 4.13496 8.58572 4.1467C8.69996 4.15844 8.81054 4.19366 8.91053 4.25016C9.01052 4.30666 9.09774 4.38322 9.16674 4.47503L13.1917 9.47503C13.3143 9.62414 13.3813 9.81118 13.3813 10.0042C13.3813 10.1972 13.3143 10.3843 13.1917 10.5334L9.02507 15.5334C8.94147 15.6342 8.83528 15.7139 8.7151 15.7661C8.59493 15.8182 8.46416 15.8412 8.3334 15.8334Z" fill="#140342"/>
</svg>
