<svg width="20" height="20" viewBox="0 0 20 20" fill="none" xmlns="http://www.w3.org/2000/svg">
<path d="M4.16664 8.33346C4.16625 8.13875 4.23407 7.95005 4.3583 7.80012C4.42826 7.71574 4.51418 7.64599 4.61113 7.59486C4.70809 7.54374 4.81418 7.51224 4.92333 7.50218C5.03247 7.49211 5.14253 7.50368 5.2472 7.53622C5.35187 7.56876 5.44909 7.62162 5.5333 7.69179L9.99997 11.4251L14.475 7.82512C14.5602 7.7559 14.6583 7.70421 14.7636 7.67302C14.8689 7.64182 14.9793 7.63175 15.0885 7.64336C15.1976 7.65498 15.3035 7.68806 15.3998 7.7407C15.4962 7.79335 15.5812 7.86452 15.65 7.95012C15.7258 8.03635 15.7831 8.13732 15.818 8.2467C15.853 8.35609 15.865 8.47153 15.8533 8.58577C15.8416 8.70001 15.8063 8.8106 15.7498 8.91058C15.6933 9.01057 15.6168 9.0978 15.525 9.16679L10.525 13.1918C10.3759 13.3144 10.1888 13.3814 9.9958 13.3814C9.80278 13.3814 9.61575 13.3144 9.46663 13.1918L4.46664 9.02512C4.36579 8.94153 4.28607 8.83533 4.23394 8.71516C4.18182 8.59498 4.15876 8.46421 4.16664 8.33346Z" fill="#140342"/>
</svg>
