<svg width="18" height="20" viewBox="0 0 18 20" fill="none" xmlns="http://www.w3.org/2000/svg">
<path d="M3.85754 8.33346C3.85721 8.13875 3.91517 7.95005 4.02134 7.80012C4.08113 7.71574 4.15456 7.64599 4.23743 7.59486C4.32029 7.54374 4.41096 7.51224 4.50424 7.50218C4.59752 7.49211 4.69159 7.50368 4.78104 7.53622C4.8705 7.56876 4.95359 7.62162 5.02556 7.69179L8.843 11.4251L12.6676 7.82512C12.7404 7.7559 12.8242 7.70421 12.9142 7.67302C13.0042 7.64182 13.0986 7.63175 13.1919 7.64336C13.2852 7.65498 13.3756 7.68806 13.458 7.7407C13.5404 7.79335 13.613 7.86452 13.6718 7.95012C13.7366 8.03635 13.7855 8.13732 13.8154 8.2467C13.8453 8.35609 13.8556 8.47153 13.8456 8.58577C13.8355 8.70001 13.8054 8.8106 13.7571 8.91058C13.7088 9.01057 13.6434 9.0978 13.5649 9.16679L9.29169 13.1918C9.16425 13.3144 9.00441 13.3814 8.83944 13.3814C8.67447 13.3814 8.51462 13.3144 8.38719 13.1918L4.11393 9.02512C4.02774 8.94153 3.95961 8.83533 3.91506 8.71516C3.87051 8.59498 3.8508 8.46421 3.85754 8.33346Z" fill="#140342"/>
</svg>
